# xmcd
#
# Track frame offsets:
#	182
#	8596
#	20650
#	35773
#	53049
#	72883
#	84630
#	100223
#	113243
#	130334
#	144380
#	161290
#	187147
#	204264
#	219121
#	241124
#	260379
#
# Disc length: 3598 seconds
# Revision: 2
# Processed by: cddbd v1.5.2PL0 Copyright (c) Steve Scherf et al.
# Submitted via: dBpowerAMP V12.0
#
DISCID=e20e0c11
DTITLE=Halden Wofford and the Hi*Beams - Sinners and Saints
DYEAR=2010
DGENRE=Country
TTITLE0=Invocation
TTITLE1=Tear it Down
TTITLE2=Sinners and Saints
TTITLE3=Fade Away
TTITLE4=Mauvais Sang
TTITLE5=Hey Bub
TTITLE6=Whippoorwill
TTITLE7=Mr. Pain
TTITLE8=Floyd Hill Broke Down
TTITLE9=The Ring
TTITLE10=Mission Avenue
TTITLE11=Dark and Cold
TTITLE12=Pill Poppin' Country Weirdo
TTITLE13=Hang Man
TTITLE14=Say Goodbye
TTITLE15=Till Night is Through
TTITLE16=American Angels
EXTD=
EXTT0=
EXTT1=
EXTT2=
EXTT3=
EXTT4=
EXTT5=
EXTT6=
EXTT7=
EXTT8=
EXTT9=
EXTT10=
EXTT11=
EXTT12=
EXTT13=
EXTT14=
EXTT15=
EXTT16=
PLAYORDER=
